HIERARCHY
ROOT Hips
{
	OFFSET	0.00	0.00	0.00
	CHANNELS 6 Xposition Yposition Zposition Zrotation Xrotation Yrotation
	JOINT LeftUpperLeg
	{
		OFFSET	-0.060319	-0.072984	 0.002079
		CHANNELS 3 Zrotation Xrotation Yrotation
		JOINT LeftLowerLeg
		{
			OFFSET	 0.351798	-0.005146	-0.008011
			CHANNELS 3 Zrotation Xrotation Yrotation
			JOINT LeftFoot
			{
				OFFSET	 0.378666	 0.003778	 0.003828
				CHANNELS 3 Zrotation Xrotation Yrotation
				JOINT LeftToes
				{
					OFFSET	 0.084296	 0.003922	 0.047710
					CHANNELS 3 Zrotation Xrotation Yrotation
					End Site
					{
						OFFSET	 0.084296	 0.003922	 0.047710
					}
				}
			}
		}
	}
	JOINT RightUpperLeg
	{
		OFFSET	-0.060836	 0.072553	 0.002079
		CHANNELS 3 Zrotation Xrotation Yrotation
		JOINT RightLowerLeg
		{
			OFFSET	 0.351363	 0.018233	-0.008011
			CHANNELS 3 Zrotation Xrotation Yrotation
			JOINT RightFoot
			{
				OFFSET	 0.378545	 0.010315	 0.003824
				CHANNELS 3 Zrotation Xrotation Yrotation
				JOINT RightToes
				{
					OFFSET	 0.084392	-0.002027	 0.047660
					CHANNELS 3 Zrotation Xrotation Yrotation
					End Site
					{
						OFFSET	 0.084392	-0.002027	 0.047660
					}
				}
			}
		}
	}
	JOINT Character1_Spine
	{
		OFFSET	 0.022713	 0.000080	 0.008181
		CHANNELS 3 Zrotation Xrotation Yrotation
		JOINT Spine
		{
			OFFSET	 0.091343	 0.000000	 0.001755
			CHANNELS 3 Zrotation Xrotation Yrotation
			JOINT Chest
			{
				OFFSET	 0.087667	 0.000000	-0.000304
				CHANNELS 3 Zrotation Xrotation Yrotation
				JOINT LeftShoulder
				{
					OFFSET	 0.122367	-0.042227	-0.001395
					CHANNELS 3 Zrotation Xrotation Yrotation
					JOINT LeftUpperArm
					{
						OFFSET	 0.055437	-0.000001	 0.000000
						CHANNELS 3 Zrotation Xrotation Yrotation
						JOINT LeftLowerArm
						{
							OFFSET	 0.233777	-0.000011	 0.000017
							CHANNELS 3 Zrotation Xrotation Yrotation
							JOINT LeftHand
							{
								OFFSET	 0.162482	 0.000000	-0.000001
								CHANNELS 3 Zrotation Xrotation Yrotation
								JOINT LeftIndexProximal
								{
									OFFSET	 0.080750	 0.001428	 0.025713
									CHANNELS 3 Zrotation Xrotation Yrotation
									JOINT LeftIndexIntermediate
									{
										OFFSET	 0.024260	 0.001187	 0.002507
										CHANNELS 3 Zrotation Xrotation Yrotation
										JOINT LeftIndexDistal
										{
											OFFSET	 0.016097	 0.000458	 0.000118
											CHANNELS 3 Zrotation Xrotation Yrotation
											End Site
											{
												OFFSET	 0.016097	 0.000458	 0.000118
											}
										}
									}
								}
								JOINT LeftMiddleProximal
								{
									OFFSET	 0.080696	 0.006021	 0.005822
									CHANNELS 3 Zrotation Xrotation Yrotation
									JOINT LeftMiddleIntermediate
									{
										OFFSET	 0.025063	-0.003793	 0.001482
										CHANNELS 3 Zrotation Xrotation Yrotation
										JOINT LeftMiddleDistal
										{
											OFFSET	 0.019431	-0.000162	-0.000068
											CHANNELS 3 Zrotation Xrotation Yrotation
											End Site
											{
												OFFSET	 0.019431	-0.000162	-0.000068
											}
										}
									}
								}
								JOINT LeftLittleProximal
								{
									OFFSET	 0.065753	 0.002283	-0.027836
									CHANNELS 3 Zrotation Xrotation Yrotation
									JOINT LeftLittleIntermediate
									{
										OFFSET	 0.018097	 0.000014	 0.000133
										CHANNELS 3 Zrotation Xrotation Yrotation
										JOINT LeftLittleDistal
										{
											OFFSET	 0.013911	-0.000247	 0.000003
											CHANNELS 3 Zrotation Xrotation Yrotation
											End Site
											{
												OFFSET	 0.013911	-0.000247	 0.000003
											}
										}
									}
								}
								JOINT LeftRingProximal
								{
									OFFSET	 0.076793	 0.006246	-0.012626
									CHANNELS 3 Zrotation Xrotation Yrotation
									JOINT LeftRingIntermediate
									{
										OFFSET	 0.023683	-0.001098	-0.000754
										CHANNELS 3 Zrotation Xrotation Yrotation
										JOINT LeftRingDistal
										{
											OFFSET	 0.015907	 0.000860	 0.000167
											CHANNELS 3 Zrotation Xrotation Yrotation
											End Site
											{
												OFFSET	 0.015907	 0.000860	 0.000167
											}
										}
									}
								}
								JOINT LeftThumbProximal
								{
									OFFSET	 0.024761	-0.014236	 0.018266
									CHANNELS 3 Zrotation Xrotation Yrotation
									JOINT LeftThumbIntermediate
									{
										OFFSET	 0.032146	-0.001523	 0.001986
										CHANNELS 3 Zrotation Xrotation Yrotation
										JOINT LeftThumbDistal
										{
											OFFSET	 0.017566	-0.000085	-0.001004
											CHANNELS 3 Zrotation Xrotation Yrotation
											End Site
											{
												OFFSET	 0.017566	-0.000085	-0.001004
											}
										}
									}
								}
							}
						}
					}
				}
				JOINT Neck
				{
					OFFSET	 0.156851	-0.000286	 0.008298
					CHANNELS 3 Zrotation Xrotation Yrotation
					JOINT Head
					{
						OFFSET	 0.078083	 0.000000	-0.005534
						CHANNELS 3 Zrotation Xrotation Yrotation
						End Site
						{
							OFFSET	 0.078083	 0.000000	-0.005534
						}
					}
				}
				JOINT RightShoulder
				{
					OFFSET	 0.122455	 0.041994	-0.000150
					CHANNELS 3 Zrotation Xrotation Yrotation
					JOINT RightUpperArm
					{
						OFFSET	 0.055437	 0.000001	 0.000000
						CHANNELS 3 Zrotation Xrotation Yrotation
						JOINT RightLowerArm
						{
							OFFSET	 0.233779	 0.000012	 0.000017
							CHANNELS 3 Zrotation Xrotation Yrotation
							JOINT RightHand
							{
								OFFSET	 0.162480	-0.000002	-0.000001
								CHANNELS 3 Zrotation Xrotation Yrotation
								JOINT RightIndexProximal
								{
									OFFSET	 0.077459	-0.023877	 0.024774
									CHANNELS 3 Zrotation Xrotation Yrotation
									JOINT RightIndexIntermediate
									{
										OFFSET	 0.024233	 0.002008	-0.002230
										CHANNELS 3 Zrotation Xrotation Yrotation
										JOINT RightIndexDistal
										{
											OFFSET	 0.015886	 0.002643	 0.000001
											CHANNELS 3 Zrotation Xrotation Yrotation
											End Site
											{
												OFFSET	 0.015886	 0.002643	 0.000001
											}
										}
									}
								}
								JOINT RightMiddleProximal
								{
									OFFSET	 0.077341	-0.024111	 0.004360
									CHANNELS 3 Zrotation Xrotation Yrotation
									JOINT RightMiddleIntermediate
									{
										OFFSET	 0.025355	-0.001169	-0.000680
										CHANNELS 3 Zrotation Xrotation Yrotation
										JOINT RightMiddleDistal
										{
											OFFSET	 0.019416	 0.000705	-0.000417
											CHANNELS 3 Zrotation Xrotation Yrotation
											End Site
											{
												OFFSET	 0.019416	 0.000705	-0.000417
											}
										}
									}
								}
								JOINT RightLittleProximal
								{
									OFFSET	 0.065019	-0.010365	-0.027722
									CHANNELS 3 Zrotation Xrotation Yrotation
									JOINT RightLittleIntermediate
									{
										OFFSET	 0.018098	 0.000052	-0.000144
										CHANNELS 3 Zrotation Xrotation Yrotation
										JOINT RightLittleDistal
										{
											OFFSET	 0.013886	-0.000828	 0.000267
											CHANNELS 3 Zrotation Xrotation Yrotation
											End Site
											{
												OFFSET	 0.013886	-0.000828	 0.000267
											}
										}
									}
								}
								JOINT RightRingProximal
								{
									OFFSET	 0.074304	-0.019655	-0.013711
									CHANNELS 3 Zrotation Xrotation Yrotation
									JOINT RightRingIntermediate
									{
										OFFSET	 0.023458	 0.003508	-0.000008
										CHANNELS 3 Zrotation Xrotation Yrotation
										JOINT RightRingDistal
										{
											OFFSET	 0.015893	-0.000379	-0.001033
											CHANNELS 3 Zrotation Xrotation Yrotation
											End Site
											{
												OFFSET	 0.015893	-0.000379	-0.001033
											}
										}
									}
								}
								JOINT RightThumbProximal
								{
									OFFSET	 0.026339	 0.004527	 0.020861
									CHANNELS 3 Zrotation Xrotation Yrotation
									JOINT RightThumbIntermediate
									{
										OFFSET	 0.032030	-0.000602	 0.001128
										CHANNELS 3 Zrotation Xrotation Yrotation
										JOINT RightThumbDistal
										{
											OFFSET	 0.017586	-0.000153	 0.000511
											CHANNELS 3 Zrotation Xrotation Yrotation
											End Site
											{
												OFFSET	 0.017586	-0.000153	 0.000511
											}
										}
									}
								}
							}
						}
					}
				}
			}
		}
	}
}
MOTION
Frames:    4
Frame Time: 0.01666667
 0.019561	 0.015195	-2.055994	 92.546340	 0.539293	-93.395620	-178.704000	 2.144892	-14.681260	 0.831530	 0.242525	 28.241990	-3.669149	 0.724455	-43.552570	-2.867671	-1.397691	-63.508240	 173.824500	-0.418264	-16.419120	 2.267410	-6.730841	 28.671210	 4.420834	-6.403837	-43.931880	 0.002926	-0.006170	-63.359000	 0.203542	 0.000000	-4.902169	 0.524104	-0.855312	 6.193566	 1.270996	-0.860950	 0.666154	-81.581690	 18.016820	-1.826772	-79.833140	 8.687484	 21.734360	-2.008940	-6.816927	-27.256900	 19.772030	-16.879390	 2.747715	-2.686189	 11.479840	 13.861840	-17.217860	-0.385384	-0.516139	-17.353230	-0.466270	 0.628653	-3.827449	 8.297546	 8.630884	-31.067580	-2.331627	 0.982476	-26.363830	-2.391354	 7.948757	-15.799020	-14.875260	 0.715949	-9.541347	 4.340984	 7.344803	-34.314040	-2.294968	 15.594280	-12.935870	-9.362662	 4.853656	-33.381730	-0.543366	 10.437380	-20.816140	-5.045161	 7.517099	 111.737400	 49.854590	-126.324700	-19.032320	 0.543783	-9.628662	-25.348610	-0.976140	-0.758762	-1.171108	 1.066403	-16.261550	-2.518887	 2.994326	 14.347320	 89.662060	-18.084890	-0.891767	 67.465990	-7.729412	 23.022730	 2.823059	 8.931396	-25.559720	 5.185313	 8.651526	 10.265040	-174.971600	-9.551303	 171.529200	-31.897770	-0.764980	-3.927542	-3.656667	-3.353679	-1.373843	 176.692200	-7.544610	 175.928400	-41.573050	-0.978691	-7.134779	-52.019010	 1.490386	-5.718540	-167.027500	-28.280240	-175.112600	-9.063102	 0.683539	-8.047261	-38.462170	 5.871889	-21.148240	-158.412500	-25.410060	-172.808800	-14.724440	-1.090099	-12.547350	-43.820690	 3.113083	-12.956650	 49.688350	 53.766370	-56.531700	-20.810600	 3.803948	 8.623060	-30.770510	-2.362322	 9.390649
 0.028573	-0.012886	-2.049907	 94.380560	 0.328315	-91.585770	-177.966600	-0.360019	-8.803724	 0.569312	-1.058585	 24.434720	-3.953329	 1.902054	-44.019620	-2.856325	-1.419749	-63.241640	 171.983100	 3.360606	-11.566350	 2.036045	-4.432965	 24.370490	 5.532484	-7.648273	-42.013960	 0.002951	-0.006157	-63.123950	 0.203542	 0.000000	-4.902169	 0.432359	-1.198759	 7.223269	 1.351587	-0.851633	 6.074098	-85.830530	 18.099200	-0.509176	-75.997340	 9.205648	 21.360860	-1.632586	-5.921098	-24.575090	 18.976080	-16.841850	 0.778392	-2.686178	 11.479830	 13.861800	-17.217770	-0.385379	-0.516139	-17.353230	-0.466270	 0.628653	-3.827387	 8.297528	 8.630817	-31.067650	-2.331632	 0.982486	-26.363770	-2.391346	 7.948743	-15.798880	-14.875250	 0.715971	-9.541347	 4.340984	 7.344803	-34.314000	-2.294957	 15.594260	-12.935820	-9.362653	 4.853644	-33.381780	-0.543374	 10.437390	-20.816110	-5.045158	 7.517093	 111.737300	 49.854600	-126.324600	-19.032320	 0.543783	-9.628662	-25.348570	-0.976141	-0.758752	-2.158692	 0.218162	-18.911430	-2.404917	 1.987816	 12.505990	 89.662120	-18.084890	-0.891729	 67.334440	-7.137863	 22.690240	 1.510892	 7.734461	-21.244600	 5.913813	 6.168508	 8.419765	-174.971600	-9.551293	 171.529200	-31.897730	-0.764983	-3.927537	-3.656688	-3.353685	-1.373846	 176.692300	-7.544617	 175.928500	-41.572900	-0.978705	-7.134758	-52.018920	 1.490374	-5.718530	-167.027600	-28.280240	-175.112600	-9.063121	 0.683538	-8.047275	-38.462150	 5.871881	-21.148230	-158.412600	-25.410050	-172.808800	-14.724330	-1.090123	-12.547300	-43.820690	 3.113083	-12.956650	 49.688340	 53.766360	-56.531650	-20.810570	 3.803953	 8.623048	-30.770530	-2.362329	 9.390656
 0.034532	-0.031157	-2.047468	 95.603000	 0.193447	-90.473790	-177.331400	-2.023920	-5.294784	 0.552050	-1.885911	 22.406950	-4.406436	 2.829221	-44.445200	-2.848402	-1.435005	-63.056870	 170.813200	 5.590202	-8.765902	 1.689283	-2.892147	 22.233770	 6.446408	-8.341558	-40.969810	 0.002968	-0.006148	-62.961110	 0.203542	 0.000000	-4.902169	 0.366973	-1.409504	 7.934904	 1.404401	-0.842123	 9.386491	-88.844150	 18.101230	 0.427293	-73.520270	 9.389133	 20.598240	-1.340388	-5.494666	-22.837120	 18.338990	-16.662240	-0.660328	-2.686189	 11.479830	 13.861800	-17.217710	-0.385383	-0.516138	-17.353220	-0.466271	 0.628653	-3.827406	 8.297524	 8.630838	-31.067690	-2.331625	 0.982492	-26.363720	-2.391340	 7.948733	-15.798860	-14.875240	 0.715965	-9.541360	 4.340982	 7.344809	-34.314000	-2.294957	 15.594260	-12.935820	-9.362658	 4.853621	-33.381730	-0.543366	 10.437380	-20.816140	-5.045161	 7.517099	 111.737300	 49.854600	-126.324600	-19.032310	 0.543782	-9.628660	-25.348570	-0.976141	-0.758752	-2.805966	-0.345473	-20.667600	-2.344876	 1.288463	 11.231990	 89.662120	-18.084890	-0.891729	 67.186680	-5.847283	 21.518300	 0.520682	 7.137636	-18.932770	 6.459828	 3.529569	 7.267256	-174.971600	-9.551287	 171.529100	-31.897710	-0.764984	-3.927536	-3.656678	-3.353685	-1.373845	 176.692200	-7.544615	 175.928400	-41.572820	-0.978714	-7.134747	-52.018920	 1.490374	-5.718530	-167.027600	-28.280240	-175.112600	-9.063073	 0.683539	-8.047250	-38.462110	 5.871869	-21.148210	-158.412600	-25.410050	-172.808800	-14.724370	-1.090116	-12.547320	-43.820670	 3.113079	-12.956640	 49.688320	 53.766380	-56.531620	-20.810560	 3.803954	 8.623044	-30.770530	-2.362329	 9.390656
 0.040946	-0.051013	-2.045929	 97.064170	 0.045109	-89.187770	-177.193400	-2.074244	-1.562270	 1.550720	-2.782309	 20.388900	-5.828280	 2.462496	-44.986630	-2.835863	-1.458905	-62.766780	 169.877900	 7.207687	-5.860630	 0.567558	-1.080364	 20.319670	 7.932840	-8.497104	-39.991790	 0.002995	-0.006134	-62.705400	 0.203542	 0.000000	-4.902169	 0.289343	-1.522949	 8.854816	 1.463636	-0.828659	 12.862980	-91.781100	 18.058180	 1.338970	-70.937130	 9.345242	 19.306670	-1.168416	-5.675482	-21.055980	 17.280350	-16.854330	-2.788954	-2.686219	 11.479830	 13.861810	-17.217640	-0.385384	-0.516139	-17.353240	-0.466270	 0.628651	-3.827504	 8.297567	 8.630961	-31.067550	-2.331627	 0.982471	-26.363800	-2.391351	 7.948751	-15.798930	-14.875260	 0.715933	-9.541347	 4.340984	 7.344803	-34.314000	-2.294957	 15.594260	-12.935840	-9.362661	 4.853649	-33.381720	-0.543363	 10.437370	-20.816140	-5.045161	 7.517099	 111.737300	 49.854600	-126.324500	-19.032290	 0.543779	-9.628655	-25.348570	-0.976141	-0.758752	-3.514102	-0.969879	-22.606970	-2.280009	 0.188236	 9.233310	 89.662120	-18.084900	-0.891773	 67.575900	-3.721421	 19.264050	-0.368071	 7.391326	-16.611630	 7.430021	 0.505828	 5.435287	-174.971600	-9.551287	 171.529100	-31.897750	-0.764981	-3.927541	-3.656612	-3.353684	-1.373839	 176.692200	-7.544618	 175.928500	-41.572790	-0.978717	-7.134743	-52.018940	 1.490383	-5.718531	-167.027700	-28.280230	-175.112700	-9.063082	 0.683540	-8.047253	-38.462100	 5.871862	-21.148200	-158.412700	-25.410040	-172.808800	-14.724370	-1.090116	-12.547320	-43.820630	 3.113069	-12.956630	 49.688330	 53.766410	-56.531730	-20.810550	 3.803955	 8.623039	-30.770510	-2.362322	 9.390649
